# xmcd
#
# Track frame offsets:
#	150
#	15275
#	31327
#	46255
#	61350
#	78717
#	94479
#	111262
#	126879
#	141640
#	159482
#	173820
#	189357
#	203197
#	219182
#	232845
#
# Disc length: 3352 seconds
#
# Revision: 0
# Processed by: cddbd v1.4PL0 Copyright (c) Steve Scherf et al.
# Submitted via: dBpowerAMP V4.0
#
DISCID=d80d1610
DTITLE=Kari Tapio - Viisitoista kesää
DYEAR=1995
DGENRE=
TTITLE0=Viisitoista kesää
TTITLE1=Kaikki jäikö viime kertaan
TTITLE2=Ei toivetta sen kummempaa
TTITLE3=Rajamaa
TTITLE4=Enkeleitä seitsemän
TTITLE5=On yksi ruusu
TTITLE6=Laula kanssain
TTITLE7=Peluri
TTITLE8=Haavetango
TTITLE9=Olen suomalainen
TTITLE10=Toisenlaiset veet
TTITLE11=Sen Eki teki vaan
TTITLE12=Sinitaikaa
TTITLE13=Kuin liito linnun
TTITLE14=Extrapallo
TTITLE15=Niin yksin oon
EXTD=
EXTT0=
EXTT1=
EXTT2=
EXTT3=
EXTT4=
EXTT5=
EXTT6=
EXTT7=
EXTT8=
EXTT9=
EXTT10=
EXTT11=
EXTT12=
EXTT13=
EXTT14=
EXTT15=
PLAYORDER=
